<?xml version="1.0" encoding="utf-8"?>
<!-- Generator: Adobe Illustrator 22.0.1, SVG Export Plug-In . SVG Version: 6.00 Build 0)  -->
<svg version="1.1" id="Capa_1" xmlns="http://www.w3.org/2000/svg" xmlns:xlink="http://www.w3.org/1999/xlink" x="0px" y="0px"
	 viewBox="0 0 512 512" style="enable-background:new 0 0 512 512;" xml:space="preserve">
<style type="text/css">
	.st0{fill:#FFFFFF;}
</style>
<g>
	<g>
		<path class="st0" d="M130.2,0c-4.1,0-7.5,3.4-7.5,7.5v16.4c0,4.1,3.4,7.5,7.5,7.5c4.1,0,7.5-3.4,7.5-7.5V7.5
			C137.7,3.4,134.3,0,130.2,0z"/>
	</g>
</g>
<g>
	<g>
		<path class="st0" d="M130.2,50.3c-4.1,0-7.5,3.4-7.5,7.5v16.4c0,4.1,3.4,7.5,7.5,7.5c4.1,0,7.5-3.4,7.5-7.5V57.8
			C137.7,53.6,134.3,50.3,130.2,50.3z"/>
	</g>
</g>
<g>
	<g>
		<path class="st0" d="M163.5,33.3h-16.4c-4.1,0-7.5,3.4-7.5,7.5s3.4,7.5,7.5,7.5h16.4c4.1,0,7.5-3.4,7.5-7.5S167.6,33.3,163.5,33.3
			z"/>
	</g>
</g>
<g>
	<g>
		<path class="st0" d="M113.2,33.3H96.8c-4.1,0-7.5,3.4-7.5,7.5s3.4,7.5,7.5,7.5h16.4c4.1,0,7.5-3.4,7.5-7.5S117.3,33.3,113.2,33.3z
			"/>
	</g>
</g>
<g>
	<g>
		<path class="st0" d="M414,385.1c-4.1,0-7.5,3.4-7.5,7.5v16.4c0,4.1,3.4,7.5,7.5,7.5s7.5-3.4,7.5-7.5v-16.4
			C421.5,388.4,418.2,385.1,414,385.1z"/>
	</g>
</g>
<g>
	<g>
		<path class="st0" d="M414,435.4c-4.1,0-7.5,3.4-7.5,7.5v16.4c0,4.1,3.4,7.5,7.5,7.5s7.5-3.4,7.5-7.5v-16.4
			C421.5,438.7,418.2,435.4,414,435.4z"/>
	</g>
</g>
<g>
	<g>
		<path class="st0" d="M447.3,418.4H431c-4.1,0-7.5,3.4-7.5,7.5s3.4,7.5,7.5,7.5h16.4c4.1,0,7.5-3.4,7.5-7.5
			S451.5,418.4,447.3,418.4z"/>
	</g>
</g>
<g>
	<g>
		<path class="st0" d="M397.1,418.4h-16.4c-4.1,0-7.5,3.4-7.5,7.5s3.4,7.5,7.5,7.5h16.4c4.1,0,7.5-3.4,7.5-7.5
			S401.2,418.4,397.1,418.4z"/>
	</g>
</g>
<g>
	<g>
		<path class="st0" d="M441.1,127.8c-3.2-22.5-10.9-40.4-22.9-53.2c-10.8-11.4-24.8-18.3-40.6-19.7c-29-2.7-58.8,13-74.1,37.3
			C294.6,78,280.6,66.5,264,60c-20.5-8-42.1-7.1-59.4,2.4c-3.6,2-5,6.5-3,10.2c2,3.6,6.5,5,10.2,3c13.4-7.3,30.4-7.9,46.8-1.6
			c18.1,7,32.2,21.2,37.9,37.9c1,3,3.9,5.1,7.1,5.1s6.1-2,7.1-5.1c8.7-25.8,38.2-44.6,65.6-42.1c26.7,2.5,45,24.4,50,60.1
			c6.5,45.9-12.8,84.6-47.7,115.3c-28.6,25.2-62.1,39.6-75,43.1c-1.1-0.3-2.6-0.7-4.4-1.4c-3.9-1.3-8.2,0.8-9.5,4.7
			c-1.3,3.9,0.8,8.2,4.7,9.5c2.9,1,5.4,1.7,7.6,2.2c0.5,0.1,1.1,0.2,1.7,0.2c0.6,0,1.1-0.1,1.7-0.2c13.2-3,50.8-18.4,83.3-46.9
			C429.6,220.2,447.8,175.7,441.1,127.8z"/>
	</g>
</g>
<g>
	<g>
		<path class="st0" d="M445.4,292.3c-5.4-5.8-12.7-9.1-20.5-9.4c-7.9-0.3-15.4,2.5-21.1,7.9l-57.4,53.4c-4.3,4-10.1,5.9-15.9,5.4
			c-0.2,0-0.3,0-0.5,0l-101.2-2.9c-5.7-0.2-10.5-4.6-11.1-10.3c-0.2-1.6,0-3.1,0.4-4.6c0.9-3,3.1-5.5,5.9-6.9l33.9-16.8
			c16.2-7.5,23.4-26.8,16-43.1c-3.9-8.5-11.2-14.9-20.1-17.7c-7.2-2.2-14.9-1.9-21.8,1c-28.5-24-59-63.2-51.2-118.3
			c2.1-14.5,6.2-26.7,12.2-36.3c2.2-3.5,1.2-8.1-2.3-10.4c-3.5-2.2-8.1-1.2-10.4,2.3c-7.2,11.4-12.1,25.6-14.4,42.2
			c-8.2,58.3,21.3,100.4,51,127.2l-51.6,23.5c-11.2,5.1-19.8,14.8-23.4,26.6l-11.8,38.4c-0.8,2.5-2,4.7-3.6,6.6l-11.7,13.8
			c-4.4-2.6-9.4-3.8-14.6-3.2c-6.4,0.7-12.1,3.8-16,8.9L58.8,402c-2.6,3.3-2,8,1.3,10.5c3.3,2.6,8,2,10.5-1.3L96,378.8
			c1.4-1.8,3.5-3,5.8-3.2c2.3-0.2,4.6,0.4,6.4,1.9l93.2,77.3c3.6,3,4.2,8.2,1.3,11.9l-26,33.2c-2.6,3.3-2,8,1.3,10.5
			c1.4,1.1,3,1.6,4.6,1.6c2.2,0,4.4-1,5.9-2.9l26-33.2c6.5-8.3,6.6-19.6,0.9-27.9l17.7-21c2.9-3.5,7.1-5.9,11.6-6.7l120.5-21.2
			c6.8-1.2,13-4.3,18-9l9.8-9.1c3-2.8,3.2-7.6,0.4-10.6c-2.8-3-7.6-3.2-10.6-0.4l-9.8,9.1c-2.9,2.7-6.5,4.5-10.4,5.2l-120.5,21.2
			c-8,1.4-15.3,5.6-20.5,11.9l-17.2,20.3l-77.9-64.6l11.5-13.5c2.9-3.5,5-7.5,6.4-11.9l11.8-38.4c2.4-7.7,7.9-14,15.3-17.4
			l62.4-28.4c0,0,0.1,0,0.1,0l2.9-1.3c3.9-1.8,8.3-2.1,12.4-0.8c4.8,1.5,8.8,5,10.8,9.5c4,8.8,0.1,19.2-8.7,23.3
			c-0.1,0-0.2,0.1-0.2,0.1l-34,16.9c-6.5,3.2-11.4,9-13.5,15.9c-1.1,3.5-1.4,7.1-1,10.7c1.4,13.1,12.4,23.3,25.6,23.7l101,2.9
			c10,0.8,19.9-2.6,27.2-9.4l57.4-53.4c2.8-2.6,6.5-4,10.4-3.9c3.9,0.1,7.5,1.8,10.1,4.6c5.4,5.9,5.1,15-0.8,20.5l-28.4,26.4
			c-3,2.8-3.2,7.6-0.4,10.6s7.6,3.2,10.6,0.4l28.4-26.4C455.7,323,456.4,304.3,445.4,292.3z"/>
	</g>
</g>
</svg>
