<?xml version="1.0" encoding="utf-8"?>
<!-- Generator: Adobe Illustrator 22.0.1, SVG Export Plug-In . SVG Version: 6.00 Build 0)  -->
<svg version="1.1" id="Layer_1" xmlns="http://www.w3.org/2000/svg" xmlns:xlink="http://www.w3.org/1999/xlink" x="0px" y="0px"
	 viewBox="0 0 512 512" style="enable-background:new 0 0 512 512;" xml:space="preserve">
<style type="text/css">
	.st0{fill:#FB900B;}
</style>
<g>
	<g>
		<path class="st0" d="M255,260.5l-49.1-14.9l-5.3-10.7c-1.7-3.3-5.5-4.9-8.9-3.8v-1.9c20.3-14.7,34.1-37.9,36.1-64.4
			c9.5-2.7,17-10.4,18.6-20.1c1-6.1-0.3-12.1-3.3-17.1c9.5-5,16-14.9,16-26.3c0-10.4-5.5-19.8-14-25.1c0.5-1.9,0.7-3.9,0.7-5.9
			c0-13.9-11.3-25.3-25.3-25.3c-3.3,0-6.5,0.7-9.4,1.8c-14.5-13.1-33-20.3-52.7-20.3h-35.5c-19.6,0-38.2,7.2-52.7,20.3
			c-2.9-1.2-6.1-1.8-9.4-1.8c-13.9,0-25.3,11.3-25.3,25.3c0,2,0.2,4,0.7,5.9c-8.5,5.3-14,14.8-14,25.1c0,11.4,6.5,21.3,15.9,26.3
			c-3,5-4.2,11-3.2,17.1c1.6,9.7,9.1,17.4,18.6,20.1c2,26.4,15.7,49.6,36,64.3v1.9c-3.4-1-7.2,0.5-8.8,3.8l-5.3,10.7l-51,15.3
			C9.8,265.2,0,278.4,0,293.6v184.3c0,4.1,3.4,7.5,7.5,7.5s7.5-3.4,7.5-7.5V293.6c0-0.5,0-1.1,0.1-1.6l30,30
			c5.3,5.3,8.2,12.3,8.2,19.8v136.2c0,4.1,3.4,7.5,7.5,7.5s7.5-3.4,7.5-7.5V341.7c0-11.5-4.5-22.3-12.6-30.4l-33-33
			c1.8-1.3,3.8-2.4,6-3l33.8-10.1c2.6,7.4,22.3,58.5,74,93c1.3,0.8,2.7,1.3,4.2,1.3s2.9-0.4,4.2-1.3c53.5-35.7,72.6-88.4,74.1-92.9
			l31.8,9.6c0.7,0.2,1.5,0.3,2.2,0.3c3.2,0,6.2-2.1,7.2-5.3C261.2,265.9,259,261.7,255,260.5z M193.9,255.1l-25.3,31.7
			c-0.3,0.4-0.8,0.5-1.1,0.5c-0.3,0-0.7-0.1-1.1-0.5L152,267.6l38.5-19.3L193.9,255.1z M140.6,256.5l-36.1-18.1v-0.5
			c11,5,23.2,7.8,36.1,7.8c12.8,0,25-2.8,36-7.8v0.5L140.6,256.5z M220.5,60.1c5.7,0,10.3,4.6,10.3,10.2c0,2-0.6,4-1.7,5.6
			c-1.3,2-1.6,4.5-0.8,6.8s2.7,4,5,4.6c6.3,1.8,10.8,7.5,10.8,14.1c0,8.1-6.6,14.7-14.7,14.7s-14.7-6.6-14.7-14.7
			c0-3.6,1.4-7.1,3.9-9.9c1.6-1.8,2.3-4.2,1.8-6.5s-2-4.3-4.2-5.3c-3.6-1.7-6-5.3-6-9.3C210.3,64.7,214.8,60.1,220.5,60.1z
			 M37.2,101.4c0-6.5,4.4-12.3,10.8-14.1c2.3-0.6,4.2-2.4,5-4.6s0.6-4.8-0.8-6.8c-1.1-1.7-1.7-3.6-1.7-5.6c0-5.7,4.6-10.3,10.3-10.3
			S71,64.7,71,70.4c0,4-2.4,7.6-6,9.3c-2.2,1-3.7,3-4.2,5.3c-0.5,2.4,0.2,4.8,1.8,6.5c2.5,2.8,3.9,6.3,3.9,9.9
			c0,8.1-6.6,14.7-14.7,14.7S37.2,109.5,37.2,101.4z M68.3,158.4c0-4.1-3.4-7.5-7.5-7.5c-5.5,0-10.3-3.6-11.1-8.5
			c-0.9-5.5,2.5-10.6,7.8-11.8c0.3-0.1,0.6-0.2,0.8-0.2c13.3-3,23.2-14.8,23.2-29c0-4.6-1.1-9.1-3.1-13.1c4.7-4.7,7.5-11.1,7.5-17.9
			c0-5.1-1.5-9.8-4.1-13.7c11.4-9.7,25.8-15,41-15h35.5c15.2,0,29.5,5.3,41,15c-2.6,4-4.1,8.7-4.1,13.8c0,6.8,2.8,13.3,7.5,17.9
			c-2,4.1-3.1,8.5-3.1,13.1c0,14.4,10.3,26.5,24,29.1c0.2,0.1,0.5,0.2,0.7,0.3c4.3,1.3,8.1,5.7,7.2,11.6c-0.8,4.8-5.5,8.5-11.1,8.5
			c-4.1,0-7.5,3.4-7.5,7.5c0,39.9-32.5,72.4-72.4,72.4S68.3,198.3,68.3,158.4z M88.4,253.1l2.4-4.8l38.5,19.3l-14.4,19.1
			c-0.3,0.4-0.8,0.5-1.1,0.5c-0.3,0-0.7-0.1-1.1-0.5l-25.1-31.4C87.9,254.6,88.2,253.9,88.4,253.1z M140.6,342.8
			C107,318.9,89,287.7,81.3,271.5l19.7,24.6c3.1,3.9,7.8,6.1,12.8,6.1c0.1,0,0.2,0,0.3,0c5.1-0.1,9.8-2.5,12.8-6.5l6.3-8.3v30.8
			c0,4.1,3.4,7.5,7.5,7.5s7.5-3.4,7.5-7.5v-30.8l6.3,8.3c3.1,4.1,7.7,6.5,12.8,6.5c0.1,0,0.2,0,0.3,0c5,0,9.6-2.2,12.8-6.1
			l19.7-24.7C192.4,287.6,174.4,318.8,140.6,342.8z"/>
	</g>
</g>
<g>
	<g>
		<path class="st0" d="M163.1,179.2c-3.2-2.6-7.9-2.1-10.5,1.1c-3.2,3.9-7.4,6.1-11.9,6.1s-8.7-2.2-11.9-6.1
			c-2.6-3.2-7.3-3.7-10.5-1.1c-3.2,2.6-3.7,7.3-1.1,10.5c6,7.4,14.6,11.6,23.6,11.6s17.6-4.2,23.6-11.6
			C166.8,186.5,166.3,181.8,163.1,179.2z"/>
	</g>
</g>
<g>
	<g>
		<path class="st0" d="M105.1,133.1c-4.1,0-7.5,3.4-7.5,7.5v8.9c0,4.1,3.4,7.5,7.5,7.5s7.5-3.4,7.5-7.5v-8.9
			C112.6,136.5,109.3,133.1,105.1,133.1z"/>
	</g>
</g>
<g>
	<g>
		<path class="st0" d="M176.1,133.1c-4.1,0-7.5,3.4-7.5,7.5v8.9c0,4.1,3.4,7.5,7.5,7.5s7.5-3.4,7.5-7.5v-8.9
			C183.6,136.5,180.3,133.1,176.1,133.1z"/>
	</g>
</g>
<g>
	<g>
		<path class="st0" d="M252.4,295.1c-2.9-2.9-7.7-2.9-10.6,0l-16.2,16.2c-8.1,8.1-12.6,18.9-12.6,30.4v136.2c0,4.1,3.4,7.5,7.5,7.5
			s7.5-3.4,7.5-7.5V341.7c0-7.5,2.9-14.5,8.2-19.8l16.2-16.2C255.4,302.7,255.4,298,252.4,295.1z"/>
	</g>
</g>
<g>
	<g>
		<path class="st0" d="M402.7,241.3c-3.2-2.6-7.9-2.1-10.5,1.1c-3.2,3.9-7.4,6.1-11.9,6.1s-8.7-2.2-11.9-6.1
			c-2.6-3.2-7.3-3.7-10.5-1.1s-3.7,7.3-1.1,10.5c6,7.4,14.6,11.6,23.6,11.6s17.6-4.2,23.6-11.6C406.4,248.6,405.9,243.9,402.7,241.3
			z"/>
	</g>
</g>
<g>
	<g>
		<path class="st0" d="M300.4,372.7c-4.1,0-7.5,3.4-7.5,7.5v97.6c0,4.1,3.4,7.5,7.5,7.5s7.5-3.4,7.5-7.5v-97.6
			C307.9,376.1,304.5,372.7,300.4,372.7z"/>
	</g>
</g>
<g>
	<g>
		<path class="st0" d="M460.1,372.7c-4.1,0-7.5,3.4-7.5,7.5v97.6c0,4.1,3.4,7.5,7.5,7.5s7.5-3.4,7.5-7.5v-97.6
			C467.6,376.1,464.3,372.7,460.1,372.7z"/>
	</g>
</g>
<g>
	<g>
		<path class="st0" d="M486.9,321.5c4.7-5.9,7.3-13.3,7.3-21.1c0-12.6-6.9-24-17.8-29.8c0-0.4,0-0.8,0-1.2c0-9.7-4.7-18.7-12.4-24.2
			c0.5-1.7,1-3.5,1.4-5.2c1-4.3,1.6-8.8,1.9-13.8c11.8-17.4,18-37.7,18-58.9c0-58-47.2-105.1-105.1-105.1s-105.1,47.2-105.1,105.1
			c0,21.2,6.2,41.5,18,58.9c0.3,5,0.9,9.5,1.9,13.8c0.4,1.8,0.9,3.5,1.4,5.2c-7.7,5.5-12.4,14.4-12.4,24.2c0,0.4,0,0.8,0,1.2
			c-10.8,5.9-17.8,17.2-17.8,29.8c0,7.8,2.6,15.2,7.3,21.1c-15.5,9.3-25.1,25.9-25.1,44.4v112c0,4.1,3.4,7.5,7.5,7.5
			c4.1,0,7.5-3.4,7.5-7.5v-112c0-15.2,9.1-28.6,23.2-34.2l1.4-0.6c22.2,30,56.4,47.8,92.1,47.8c36.3,0,69.7-17.4,92.1-47.8l1.4,0.6
			c14.1,5.6,23.2,19.1,23.2,34.2v112c0,4.1,3.4,7.5,7.5,7.5s7.5-3.4,7.5-7.5v-112C512,347.4,502.4,330.8,486.9,321.5z M290.1,167.2
			c0-49.7,40.4-90.1,90.1-90.1s90.1,40.4,90.1,90.1c0,12.6-2.6,24.9-7.6,36.3c-10.8-23.3-34.8-29.8-58.2-36.1
			c-18.9-5.1-38.4-10.4-55.2-23.8c-1.8-1.4-4.1-2-6.3-1.5c-2.2,0.5-4.1,1.9-5.1,4c-0.1,0.2-7.9,15.6-23.3,23.3
			c-3.7,1.9-5.2,6.4-3.4,10.1c1.9,3.7,6.4,5.2,10.1,3.4c12.2-6.1,20.6-15.8,25.4-22.5c17.5,11.7,36.7,16.9,53.8,21.6
			c5.6,1.5,10.8,3,15.6,4.5c-0.2,0-0.3,0-0.5,0c-9.1,0-17.2,4.9-21.6,12.2c-4.1-2.1-8.9-3.3-13.9-3.3c-5,0-9.8,1.2-13.9,3.3
			c-4.4-7.3-12.5-12.2-21.6-12.2c-13.9,0-25.3,11.3-25.3,25.3s11.3,25.3,25.3,25.3c13,0,23.7-9.8,25.1-22.4
			c2.4-2.6,6.3-4.2,10.4-4.2c4.1,0,8,1.6,10.4,4.2c1.4,12.6,12.1,22.4,25.1,22.4c13.9,0,25.3-11.3,25.3-25.3
			c0-7.3-3.1-13.9-8.1-18.5c10.7,5.8,17.3,14,19.8,28.4c-0.1,0.5-0.2,1-0.2,1.6c-0.2,5-0.7,9.4-1.6,13.5
			c-3.6,15.7-12.5,30-25.1,40.2c-13,10.5-28.7,16.1-45.5,16.1s-32.5-5.6-45.5-16.1c-12.6-10.2-21.5-24.5-25.1-40.2
			c-0.9-4.1-1.5-8.5-1.6-13.5c-0.1-2-0.9-3.8-2.2-5.1C295.5,203.1,290.1,185.5,290.1,167.2z M426,211.6c0,5.7-4.6,10.3-10.3,10.3
			s-10.3-4.6-10.3-10.3s4.6-10.3,10.3-10.3S426,206,426,211.6z M355,211.6c0,5.7-4.6,10.3-10.3,10.3s-10.3-4.6-10.3-10.3
			s4.6-10.3,10.3-10.3S355,206,355,211.6z M423.4,311.5c-11.7,10.8-26.9,16.9-43.1,16.9c-16.2,0-31.4-6.1-43.1-16.9
			c4.7-2,8.6-5.4,11.2-9.6c10.1,4,20.9,6.1,31.9,6.1c11,0,21.8-2.1,31.9-6.1C414.8,306.1,418.7,309.4,423.4,311.5z M288,315
			c-4.3-3.6-6.8-8.9-6.8-14.6c0-8.3,5.4-15.6,13.4-18.1c3.8-1.2,6-5.2,5-9.1c-0.4-1.5-0.6-2.7-0.6-3.8c0-3.5,1.2-6.7,3.3-9.3
			c5.6,10.9,13.4,20.7,23,28.5c3,2.4,6.1,4.6,9.4,6.6c-1.1,1.2-2.4,2.2-3.9,2.8L288,315z M380.3,363.9c-30.2,0-58.2-14-77.7-38.6
			l19.5-7.8c14.9,16.5,35.8,25.8,58.2,25.8c22.4,0,43.3-9.4,58.2-25.8l19.5,7.8C438.4,349.9,410.4,363.9,380.3,363.9z M472.5,315
			l-42.8-17.1c-1.5-0.6-2.9-1.6-3.9-2.8c3.3-2,6.4-4.2,9.4-6.6c9.6-7.8,17.5-17.6,23-28.5c2.1,2.6,3.3,5.8,3.3,9.3
			c0,1.1-0.2,2.3-0.6,3.8c-1.1,3.9,1.1,7.9,5,9.1c8,2.5,13.4,9.8,13.4,18.1C479.3,306,476.7,311.4,472.5,315z"/>
	</g>
</g>
</svg>
