<?xml version="1.0" encoding="utf-8"?>
<!-- Generator: Adobe Illustrator 22.0.1, SVG Export Plug-In . SVG Version: 6.00 Build 0)  -->
<svg version="1.1" id="Layer_1" xmlns="http://www.w3.org/2000/svg" xmlns:xlink="http://www.w3.org/1999/xlink" x="0px" y="0px"
	 viewBox="0 0 512 512" style="enable-background:new 0 0 512 512;" xml:space="preserve">
<style type="text/css">
	.st0{fill:#FB900B;}
</style>
<g>
	<g>
		<path class="st0" d="M284.4,411.8L224.9,388v-22.1c33.2-15,56.9-47.3,59.7-85.3h1.3c13.6,0,24.6-11.1,24.6-24.6
			c0-11-7.2-20.3-17.1-23.5V196c0-20.2-6.4-39.5-18.4-55.6c-11.8-15.8-27.8-27.2-46.5-33.2L190.2,4.9c-1.1-2.9-3.9-4.9-7-4.9
			s-5.9,1.9-7,4.9l-38.4,102.3c-18.4,5.8-34.9,17.6-46.5,33.2c-12.1,16.2-18.4,35.4-18.4,55.7v36.5c-9.9,3.2-17.1,12.5-17.1,23.5
			c0,13.6,11.1,24.6,24.6,24.6h1.3c2.8,38,26.5,70.3,59.7,85.3V388L82,411.8c-16,6.4-26.3,21.6-26.3,38.8v53.9
			c0,4.1,3.4,7.5,7.5,7.5s7.5-3.4,7.5-7.5v-53.9c0-11,6.6-20.8,16.8-24.9l53.9-21.6c1.3,21.9,19.5,39.3,41.7,39.3
			c22.2,0,40.4-17.4,41.7-39.3l53.9,21.6c10.2,4.1,16.8,13.8,16.8,24.9v53.9c0,4.1,3.4,7.5,7.5,7.5s7.5-3.4,7.5-7.5v-53.9
			C310.6,433.4,300.3,418.2,284.4,411.8z M223.8,137.1h-34.9l28.6-16.7L223.8,137.1z M183.2,28.9l7.9,21.1l-20.2,11.8L183.2,28.9z
			 M162.5,83.9l33.9-19.8l5.2,13.9l-47.2,27.5L162.5,83.9z M146.1,127.8l60.9-35.5l5.2,13.9l-53,30.9h-16.5L146.1,127.8z
			 M209.9,401.7c0,14.8-12,26.8-26.8,26.8s-26.8-12-26.8-26.8v-30.4c8.5,2.3,17.5,3.6,26.8,3.6s18.2-1.2,26.8-3.6V401.7z
			 M183.2,359.9c-47.8,0-86.8-38.9-86.8-86.8c0-4.1-3.4-7.5-7.5-7.5h-8.6c-5.3,0-9.6-4.3-9.6-9.6s4.3-9.6,9.6-9.6h13.4
			c10.6,0,20-6.8,23.4-16.8l3-9c8.2-0.3,24.9-1.2,45-4.3c38-5.9,68.6-16.3,90.9-31.2c3.4-2.3,4.4-7,2.1-10.4s-7-4.4-10.4-2.1
			c-48.9,32.6-132.1,33-132.9,33c-3.2,0-6.1,2.1-7.1,5.1l-4.7,14c-1.3,3.9-5,6.6-9.1,6.6h-5.9V196c0-30,16.8-56.6,42.8-69.8
			l-5.9,15.7c-0.9,2.3-0.5,4.9,0.9,6.9c1.4,2,3.7,3.2,6.2,3.2h102.8c2.5,0,4.8-1.2,6.2-3.2c1.4-2,1.7-4.6,0.9-6.9l-5.9-15.7
			c26,13.1,42.8,39.8,42.8,69.8v35.3h-5.9c-4.2,0-7.8-2.6-9.1-6.6l-4.7-14c-1.3-3.9-5.6-6.1-9.5-4.7c-3.9,1.3-6.1,5.6-4.7,9.5
			l4.7,14c3.4,10.1,12.8,16.8,23.4,16.8H286c5.3,0,9.6,4.3,9.6,9.6s-4.3,9.6-9.6,9.6h-8.6c-4.1,0-7.5,3.4-7.5,7.5
			C269.9,321,231,359.9,183.2,359.9z"/>
	</g>
</g>
<g>
	<g>
		<path class="st0" d="M140.3,248.5c-4.1,0-7.5,3.4-7.5,7.5v8.6c0,4.1,3.4,7.5,7.5,7.5s7.5-3.4,7.5-7.5V256
			C147.8,251.9,144.5,248.5,140.3,248.5z"/>
	</g>
</g>
<g>
	<g>
		<path class="st0" d="M226,248.5c-4.1,0-7.5,3.4-7.5,7.5v8.6c0,4.1,3.4,7.5,7.5,7.5s7.5-3.4,7.5-7.5V256
			C233.5,251.9,230.2,248.5,226,248.5z"/>
	</g>
</g>
<g>
	<g>
		<path class="st0" d="M214.7,302.7c-2.6-3.2-7.4-3.7-10.6-1c-5.3,4.4-12.9,6.9-20.9,6.9s-15.6-2.5-20.9-6.9
			c-3.2-2.6-7.9-2.2-10.6,1c-2.6,3.2-2.2,7.9,1,10.6c8.1,6.6,18.9,10.3,30.5,10.3c11.6,0,22.4-3.6,30.5-10.3
			C216.8,310.6,217.3,305.9,214.7,302.7z"/>
	</g>
</g>
<g>
	<g>
		<path class="st0" d="M120.9,474.6l-17.1-25.7c-2.3-3.4-7-4.4-10.4-2.1c-3.4,2.3-4.4,7-2.1,10.4l15.9,23.8v23.4
			c0,4.1,3.4,7.5,7.5,7.5s7.5-3.4,7.5-7.5v-25.7C122.1,477.3,121.7,475.9,120.9,474.6z"/>
	</g>
</g>
<g>
	<g>
		<path class="st0" d="M273,446.8c-3.4-2.3-8.1-1.4-10.4,2.1l-17.1,25.7c-0.8,1.2-1.3,2.7-1.3,4.2v25.7c0,4.1,3.4,7.5,7.5,7.5
			s7.5-3.4,7.5-7.5v-23.4l15.9-23.8C277.4,453.8,276.5,449.1,273,446.8z"/>
	</g>
</g>
<g>
	<g>
		<path class="st0" d="M371.7,0c-46.7,0-84.6,38-84.6,84.6c0,34.8,8.4,68.1,23.6,93.8c12,20.3,27.1,33.7,43.5,39.3l-7,27.9
			c-0.6,2.2-0.1,4.6,1.4,6.4c1.4,1.8,3.6,2.9,5.9,2.9h9.6v139.2h-9.6c-13.6,0-24.6,11.1-24.6,24.6v34.3c0,11,7.2,20.3,17.1,23.5
			v27.9c0,4.1,3.4,7.5,7.5,7.5s7.5-3.4,7.5-7.5v-26.8h9.6c3.4,0,6.7-0.7,9.6-2v28.7c0,4.1,3.4,7.5,7.5,7.5s7.5-3.4,7.5-7.5v-51.4
			v-51.4c0-4.1-3.4-7.5-7.5-7.5h-9.6V254.9h9.6c2.3,0,4.5-1.1,5.9-2.9c1.4-1.8,1.9-4.2,1.4-6.4l-7-27.9
			c16.5-5.6,31.5-19.1,43.5-39.3c15.2-25.7,23.6-59,23.6-93.8C456.3,38,418.3,0,371.7,0z M381.3,409.2v43.9c0,5.3-4.3,9.6-9.6,9.6
			h-17.1c-5.3,0-9.6-4.3-9.6-9.6v-34.3c0-5.3,4.3-9.6,9.6-9.6H381.3z M364.1,239.9l4.8-19.3h5.4l4.8,19.3H364.1z M419.8,170.8
			c-13.3,22.5-30.4,34.9-48.1,34.9c-17.7,0-34.8-12.4-48.1-34.9c-13.7-23.1-21.5-54.5-21.5-86.2c0-38.4,31.2-69.6,69.6-69.6
			s69.6,31.2,69.6,69.6C441.3,116.3,433.5,147.7,419.8,170.8z"/>
	</g>
</g>
<g>
	<g>
		<path class="st0" d="M421,74.5c-4.8-23.3-25.5-40.3-49.3-40.3c-4.1,0-7.5,3.4-7.5,7.5s3.4,7.5,7.5,7.5c16.7,0,31.3,11.9,34.6,28.3
			c0.7,3.6,3.9,6,7.3,6c0.5,0,1-0.1,1.5-0.2C419.2,82.6,421.8,78.6,421,74.5z"/>
	</g>
</g>
</svg>
