<?xml version="1.0" encoding="utf-8"?>
<!-- Generator: Adobe Illustrator 22.0.1, SVG Export Plug-In . SVG Version: 6.00 Build 0)  -->
<svg version="1.1" id="Capa_1" xmlns="http://www.w3.org/2000/svg" xmlns:xlink="http://www.w3.org/1999/xlink" x="0px" y="0px"
	 viewBox="0 0 512 512" style="enable-background:new 0 0 512 512;" xml:space="preserve">
<style type="text/css">
	.st0{fill:#FFFFFF;}
</style>
<g>
	<g>
		<path class="st0" d="M394.7,276.8c-1.8-6.9-6.2-12.6-12.4-16.1c-6.1-3.5-13.3-4.5-20.2-2.7c-5.4,1.4-10,4.4-13.5,8.6
			c-0.6-0.4-1.2-0.8-1.8-1.1c-6.1-3.5-13.3-4.5-20.2-2.7c-6.7,1.8-12.3,6-15.8,11.9c-5.7-2.7-12.1-3.3-18.3-1.7
			c-6.9,1.8-12.6,6.2-16.1,12.4l-24.3,42.2c-2.1,3.6-0.8,8.2,2.7,10.2c1.2,0.7,2.5,1,3.7,1c2.6,0,5.1-1.3,6.5-3.8l24.3-42.2
			c1.5-2.7,4-4.6,7-5.4c2.3-0.6,4.6-0.5,6.8,0.3L269.7,346l-54,14.9c-4.3,1.2-8.9-1-10.7-5.2c-0.5-1.1-0.7-2.3-0.7-3.5
			c0-2.5,1-4.8,2.8-6.5l23.8-22.6c12-10.7,13.1-29.2,2.4-41.2c-5.5-6.3-13.5-9.9-21.9-9.9c-7.2,0-14.1,2.6-19.4,7.4l-46.7,41.3
			c-8.2,7.3-13,17.8-13,28.8v34.9c0,2.1-0.4,4.2-1.2,6l-5.9,13.7c-4.3-0.9-8.7-0.5-12.7,1.3c-5.4,2.3-9.5,6.6-11.6,12l-12.8,33.4
			c-1.5,3.9,0.4,8.2,4.3,9.7s8.2-0.4,9.7-4.3l12.8-33.4c0.6-1.6,1.9-2.9,3.5-3.6c1.6-0.7,3.4-0.7,5,0l96,39.9c0,0,0.1,0,0.1,0.1
			c0.1,0,0.1,0,0.2,0.1l0.8,0.3c3.2,1.4,4.8,5,3.5,8.3L211,501.8c-1.5,3.9,0.4,8.2,4.3,9.7c3.9,1.5,8.2-0.4,9.7-4.3l13.1-34.1
			c3.4-8.8,0.7-18.3-6.1-24l9.1-21.2c1.4-3.5,4.1-6.3,7.4-8l29.4-15c3.7-1.9,5.2-6.4,3.3-10.1c-1.9-3.7-6.4-5.2-10.1-3.3l-29.4,15
			c-6.5,3.3-11.6,8.9-14.4,15.6l-8.7,20.3l-79.2-33l5.7-13.2c1.6-3.8,2.4-7.7,2.4-11.8v-34.9c0-6.7,2.9-13.1,7.9-17.6l46.7-41.3
			c2.6-2.3,6-3.6,9.5-3.6c4.1,0,8,1.7,10.7,4.8c5.2,5.9,4.7,14.9-1.2,20.1c-0.1,0.1-0.1,0.1-0.2,0.2l-23.9,22.7
			c-4.8,4.5-7.5,10.9-7.5,17.4c0,3.3,0.7,6.5,2,9.5c4.7,11,16.9,16.8,28.4,13.7l84.5-23.3c8.7-1.9,16.3-7.4,20.8-15.2l34-58.9
			c1.5-2.7,4-4.6,7-5.4c3-0.8,6.1-0.4,8.8,1.2c2.7,1.5,4.6,4,5.4,7c0.8,3,0.4,6.1-1.2,8.8l-35.8,62.1c-1.6,2.8-4,5.1-6.9,6.6
			l-38.2,19.5c-3.7,1.9-5.2,6.4-3.3,10.1c1.9,3.7,6.4,5.2,10.1,3.3l38.2-19.5c5.5-2.8,10-7.1,13.1-12.4L392,297
			C395.6,290.8,396.5,283.7,394.7,276.8z M311.9,329.3c-2.4,4.1-6.4,7.1-11.1,8.1c-0.2,0-0.3,0.1-0.5,0.1l-10.1,2.8l33.2-57.5
			c1.5-2.7,4-4.6,7-5.4c3-0.8,6.1-0.4,8.8,1.2c0.5,0.3,0.9,0.6,1.4,1L311.9,329.3z"/>
	</g>
</g>
<g>
	<g>
		<path class="st0" d="M419.5,51.6c-3.9-1.5-8.2,0.4-9.7,4.3L397,89.3c-0.6,1.6-1.9,2.9-3.5,3.6c-1.6,0.7-3.4,0.7-5,0l-3.3-1.4
			c0,0-0.1,0-0.1-0.1c0,0-0.1,0-0.1,0l-93.5-38.9c-3.2-1.3-4.8-5-3.5-8.3L301,10.2c1.5-3.9-0.4-8.2-4.3-9.7
			c-3.9-1.5-8.2,0.4-9.7,4.3l-13.1,34.1c-3.3,8.7-0.7,18,5.8,23.8L271,84.2c-1.4,3.5-4.1,6.3-7.4,8l-33,16.8
			c-3.7,1.9-5.2,6.4-3.3,10.1c1.3,2.6,4,4.1,6.7,4.1c1.1,0,2.3-0.3,3.4-0.8l33-16.8c6.5-3.3,11.6-8.9,14.4-15.6l8.4-20.4l79.3,33
			l-5.5,13.3c-1.6,3.8-2.4,7.7-2.4,11.8v34.8c0,6.7-2.9,13.1-7.9,17.6l-46.7,41.3c-2.6,2.3-6,3.6-9.5,3.6c-4.1,0-8-1.7-10.7-4.8
			c-5.2-5.9-4.7-14.9,1.2-20.1c0.1-0.1,0.1-0.1,0.2-0.2l23.9-22.7c4.8-4.5,7.5-10.9,7.5-17.4c0-3.3-0.7-6.5-2-9.5
			c-4.7-11-16.9-16.8-28.4-13.7L207.9,160c-8.7,1.9-16.3,7.4-20.8,15.2l-34,58.9c-1.5,2.7-4,4.6-7,5.4c-3,0.8-6.1,0.4-8.8-1.2
			c-2.7-1.5-4.6-4-5.4-7c-0.8-3-0.4-6.1,1.2-8.8l35.8-62.1c1.6-2.8,4-5.1,6.9-6.6l34.9-17.8c3.7-1.9,5.2-6.4,3.3-10.1
			c-1.9-3.7-6.4-5.2-10.1-3.3l-35,17.8c-5.5,2.8-10,7.1-13.1,12.4L120,215c-3.6,6.2-4.5,13.3-2.7,20.2c1.8,6.9,6.2,12.6,12.4,16.1
			c4.1,2.4,8.6,3.6,13.3,3.6c2.3,0,4.6-0.3,6.9-0.9c5.4-1.4,10-4.4,13.5-8.6c0.6,0.4,1.2,0.8,1.8,1.1c4.1,2.4,8.6,3.6,13.3,3.6
			c2.3,0,4.6-0.3,6.9-0.9c6.7-1.8,12.3-6,15.8-11.9c3.6,1.7,7.5,2.6,11.4,2.6c2.3,0,4.6-0.3,6.9-0.9c6.9-1.8,12.6-6.2,16.1-12.4
			l25.3-43.8c2.1-3.6,0.8-8.2-2.7-10.2c-3.6-2.1-8.2-0.8-10.2,2.7l-25.3,43.8c-1.5,2.7-4,4.6-7,5.4c-2.3,0.6-4.6,0.5-6.8-0.3
			l33.6-58.2l54-14.9c4.3-1.2,8.9,1,10.7,5.2c0.5,1.1,0.7,2.3,0.7,3.5c0,2.5-1,4.8-2.8,6.5l-23.8,22.6c-12,10.7-13.1,29.2-2.4,41.2
			c5.5,6.3,13.5,9.9,21.9,9.9c7.2,0,14.1-2.6,19.4-7.4l46.7-41.3c8.2-7.3,13-17.8,13-28.8v-34.8c0-2.1,0.4-4.2,1.2-6.1l5.6-13.6
			c1.5,0.3,3,0.5,4.5,0.5c2.9,0,5.7-0.6,8.4-1.8c5.4-2.3,9.5-6.6,11.6-12l12.8-33.4C425.3,57.4,423.4,53.1,419.5,51.6z M188.5,229.3
			c-1.5,2.7-4,4.6-7,5.4c-3,0.8-6.1,0.4-8.8-1.2c-0.5-0.3-0.9-0.6-1.4-1l28.8-49.9c2.4-4.1,6.4-7.1,11.1-8.1c0.2,0,0.3-0.1,0.5-0.1
			l10.1-2.8L188.5,229.3z"/>
	</g>
</g>
</svg>
