<?xml version="1.0" encoding="utf-8"?>
<!-- Generator: Adobe Illustrator 22.0.1, SVG Export Plug-In . SVG Version: 6.00 Build 0)  -->
<svg version="1.1" id="Capa_1" xmlns="http://www.w3.org/2000/svg" xmlns:xlink="http://www.w3.org/1999/xlink" x="0px" y="0px"
	 viewBox="0 0 512 512" style="enable-background:new 0 0 512 512;" xml:space="preserve">
<style type="text/css">
	.st0{fill:#FFFFFF;}
</style>
<g>
	<g>
		<path class="st0" d="M398.8,162.3V122c0,0,0-0.1,0-0.1V89.8C398.8,40.3,358.5,0,309,0H173.2c-4.1,0-7.5,3.4-7.5,7.5V40
			c0,4.1,3.4,7.5,7.5,7.5s7.5-3.4,7.5-7.5V15H309c41.3,0,74.8,33.6,74.8,74.8v24.7H227.6c-7.5,0-14.6-1.7-20.8-4.9
			c-0.3-0.2-0.7-0.4-1.1-0.5c-14.3-7.5-24.2-22.2-25-39.4c-0.2-4.1-3.7-7.4-7.8-7.2c-4.1,0.2-7.3,3.7-7.2,7.8
			c0.9,21.4,12.5,39.7,29.5,50.1c0,0.5,0,1,0,1.6v40.3c-16.2,0.1-29.3,13.3-29.3,29.5v10.4c0,16.3,13.2,29.5,29.5,29.5h0.6
			c4.3,34.7,26.3,65.1,58.1,79.9v16.8H123c-0.4,0-0.8-0.3-0.8-0.8v-42.4c0-5.4-3.6-9.9-8.4-11.3V256l39-27.3
			c9.4-6.6,11.7-19.7,5.1-29.1c-3.2-4.6-8-7.6-13.5-8.6c-5.5-1-11,0.3-15.6,3.5l-6.7,4.7v-9.7c0-22-17.9-40-40-40s-40,17.9-40,40
			v38.6c0,6.2,2.1,12.4,5.9,17.3l2.5,3.3v25c-5.3,1.1-9.4,5.9-9.4,11.6V369c0,22.2,18.1,40.3,40.3,40.3h6.5c4.1,0,7.5-3.4,7.5-7.5
			s-3.4-7.5-7.5-7.5h-6.5c-14,0-25.3-11.4-25.3-25.3v-80.6h51v39.3c0,8.7,7.1,15.8,15.8,15.8h131.5c1.2,5.8,4.6,8.1,7.9,12.5
			c8.5,10.4,21.2,16.4,34.7,16.4c0,0,0,0,0,0c26,0,36.9-20,39.3-22c1.6-2,2.7-4.4,3.3-6.9h18.1c17.4,0,33.4,8.7,42.9,23.3
			c1.4,2.2,3.8,3.4,6.3,3.4c1.4,0,2.8-0.4,4.1-1.2c3.5-2.3,4.4-6.9,2.2-10.4c-12.3-18.9-33-30.1-55.5-30.1h-17.8v-16.8
			c9.8-4.6,18.8-10.6,26.8-18.1c3-2.8,3.2-7.6,0.3-10.6c-2.8-3-7.6-3.2-10.6-0.3c-7.9,7.4-16.9,13.2-26.8,17.2
			c-10.3,4.2-21.3,6.3-32.6,6.3c-11.3,0-22.2-2.1-32.6-6.3c-31.1-12.6-52.3-42.4-54.1-75.9c-0.2-4-3.5-7.1-7.5-7.1h-7.5
			c-8,0-14.5-6.5-14.5-14.5v-10.4c0-8,6.5-14.5,14.5-14.5h7.3c4.1,0,7.5-3.4,7.5-7.5V127c5.5,1.6,11.3,2.5,17.4,2.5h156.2v40.3
			c0,4.1,3.4,7.5,7.5,7.5h7.3c8,0,14.5,6.5,14.5,14.5v10.4c0,8-6.5,14.5-14.5,14.5h-7.5c-4,0-7.3,3.1-7.5,7.1
			c-0.7,13.1-4.2,25.5-10.4,36.9c-2,3.6-0.6,8.2,3,10.2c1.1,0.6,2.4,0.9,3.6,0.9c2.7,0,5.2-1.4,6.6-3.9
			c6.2-11.3,10.1-23.5,11.6-36.2h0.6c16.3,0,29.5-13.2,29.5-29.5v-10.4C428.1,175.6,415,162.4,398.8,162.3z M102,246
			c-2,1.4-3.2,3.7-3.2,6.1v21.3H65.6v-27.3c0-1.7-0.5-3.3-1.6-4.6l-4.1-5.3c-1.8-2.3-2.8-5.2-2.8-8.2v-38.6c0-13.8,11.2-25,25-25
			s25,11.2,25,25v24.1c0,2.8,1.6,5.4,4,6.7c2.5,1.3,5.5,1.1,7.8-0.5l18.5-12.9c2.7-1.9,6.3-1.2,8.2,1.4c1.9,2.7,1.2,6.3-1.4,8.2
			L102,246z M269.2,317.2c9,2.6,18.4,3.9,27.9,3.9c9.5,0,18.9-1.3,27.9-3.9v23.1c0,0.2-0.1,0.4-0.2,0.6c-2.5,2.2-9.7,16.5-27.7,16.5
			c0,0,0,0,0,0c-18,0-25.1-14.3-27.7-16.5c-0.1-0.2-0.2-0.4-0.2-0.6L269.2,317.2L269.2,317.2z"/>
	</g>
</g>
<g>
	<g>
		<path class="st0" d="M416.4,489.5c-4.1,0-7.5,3.4-7.5,7.5H224.6v-86.4c0-9-7.3-16.3-16.3-16.3H118c-4.1,0-7.5,3.4-7.5,7.5
			s3.4,7.5,7.5,7.5h90.3c0.7,0,1.3,0.6,1.3,1.3v89.9c0,6.3,5.2,11.5,11.5,11.5h191.4c6.3,0,11.5-5.2,11.5-11.5V497
			C423.9,492.9,420.6,489.5,416.4,489.5z"/>
	</g>
</g>
<g>
	<g>
		<path class="st0" d="M335.2,220c-3.8-1.6-8.2,0.3-9.8,4.1c-4.7,11.6-15.9,19.1-28.4,19.1c-8.2,0-15.9-3.2-21.7-9
			c-2.9-2.9-5.2-6.3-6.7-10.1c-1.6-3.8-5.9-5.7-9.8-4.1c-3.8,1.6-5.7,5.9-4.1,9.8c2.3,5.7,5.7,10.8,10,15.1
			c8.6,8.6,20.1,13.4,32.3,13.4c18.7,0,35.3-11.2,42.3-28.5C340.9,225.9,339,221.6,335.2,220z"/>
	</g>
</g>
<g>
	<g>
		<path class="st0" d="M249.8,163.8c-4.1,0-7.5,3.4-7.5,7.5v4.6c0,4.1,3.4,7.5,7.5,7.5s7.5-3.4,7.5-7.5v-4.6
			C257.3,167.2,254,163.8,249.8,163.8z"/>
	</g>
</g>
<g>
	<g>
		<path class="st0" d="M344.2,163.8c-4.1,0-7.5,3.4-7.5,7.5v4.6c0,4.1,3.4,7.5,7.5,7.5s7.5-3.4,7.5-7.5v-4.6
			C351.7,167.2,348.3,163.8,344.2,163.8z"/>
	</g>
</g>
<g>
	<g>
		<path class="st0" d="M429.6,436.4c-2-14.3-10.4-23.6-22.3-24.7c-7.7-0.7-15.3,2.1-20.9,7.2c-5.5-5.1-13.2-7.9-20.9-7.2
			c-11.9,1.1-20.3,10.3-22.3,24.7c-2.1,15.1,3.5,29,16.3,40.2c9.3,8.2,20.5,13,25.3,14.1c0.5,0.1,1.1,0.2,1.7,0.2s1.1-0.1,1.7-0.2
			c4.8-1.1,15.9-5.9,25.3-14.1C426.1,465.4,431.7,451.5,429.6,436.4z M386.4,475.5c-7.5-2.7-31.5-14.9-28.3-37
			c0.7-5.1,2.8-11.3,8.9-11.8c0.3,0,0.6,0,0.9,0c4.8,0,9.9,3.5,11.4,7.9c1,3,3.9,5.1,7.1,5.1s6.1-2,7.1-5.1
			c1.6-4.7,7.3-8.4,12.4-7.9c6,0.6,8.1,6.7,8.9,11.8C417.9,460.7,394,472.9,386.4,475.5z"/>
	</g>
</g>
<g>
	<g>
		<path class="st0" d="M430.9,367.9c-3.9-1.4-8.2,0.7-9.6,4.6l-6.3,17.9c-1.4,3.9,0.7,8.2,4.6,9.6c0.8,0.3,1.7,0.4,2.5,0.4
			c3.1,0,6-1.9,7.1-5l6.3-17.9C436.9,373.6,434.8,369.3,430.9,367.9z"/>
	</g>
</g>
<g>
	<g>
		<path class="st0" d="M396.8,391.5l-8.3-17.1c-1.8-3.7-6.3-5.3-10-3.5c-3.7,1.8-5.3,6.3-3.5,10l8.3,17.1c1.3,2.7,4,4.2,6.8,4.2
			c1.1,0,2.2-0.2,3.3-0.7C397.1,399.7,398.6,395.3,396.8,391.5z"/>
	</g>
</g>
<g>
	<g>
		<path class="st0" d="M470,402.9c-1.8-3.7-6.3-5.3-10-3.5l-17.1,8.3c-3.7,1.8-5.3,6.3-3.5,10c1.3,2.7,4,4.2,6.8,4.2
			c1.1,0,2.2-0.2,3.3-0.7l17.1-8.3C470.2,411.1,471.8,406.6,470,402.9z"/>
	</g>
</g>
</svg>
